<?xml version="1.0" encoding="UTF-8"?>
<svg id="Capa_1" xmlns="http://www.w3.org/2000/svg" version="1.1" viewBox="0 0 44.1 44.6">
  <defs>
    <style>
      .st0 {
        fill: #bebebe;
      }

      .st1 {
        fill: #fcfcfc;
      }
    </style>
  </defs>
  <polygon points="29.5 33 29.5 29 33.5 29 33.5 25 29.5 24.9 29.5 21 33.5 21 33.5 17 29.5 17 29.5 13 25.5 13 25.5 17 21.4 17 21.4 13 17.4 13 17.4 17 13.4 17 13.4 21 17.4 21 17.4 24.9 13.4 25 13.4 29 17.4 29 17.4 33 21.4 33 21.4 29 25.5 29 25.5 33 29.5 33 29.5 37.1 17.4 37.1 17.4 33 13.4 33 13.4 29 9.4 29 9.4 17 13.4 17 13.4 13 17.4 13 17.4 9 29.5 9 29.5 13 33.5 13 33.5 17 37.5 17 37.5 29 33.5 29 33.5 33 29.5 33"/>
  <polygon class="st1" points="29.5 24.9 25.5 24.9 25.5 21 21.4 21 21.4 24.9 17.4 24.9 17.4 21 13.4 21 13.4 17 17.4 17 17.4 13 21.4 13 21.4 17 25.5 17 25.5 13 29.5 13 29.5 17 33.5 17 33.5 21 29.5 21 29.5 24.9"/>
  <polygon class="st0" points="17.4 24.9 21.4 24.9 25.5 24.9 29.5 24.9 33.5 25 33.5 29 29.5 29 29.5 33 25.5 33 25.5 29 21.4 29 21.4 33 17.4 33 17.4 29 13.4 29 13.4 25 17.4 24.9"/>
  <polygon points="25.5 24.9 21.4 24.9 21.4 21 25.5 21 25.5 24.9"/>
</svg>
