<?xml version="1.0" encoding="UTF-8"?>
<svg id="Capa_1" xmlns="http://www.w3.org/2000/svg" xmlns:xlink="http://www.w3.org/1999/xlink" version="1.1" viewBox="0 0 415.6 171.2">
  <!-- Generator: Adobe Illustrator 30.1.0, SVG Export Plug-In . SVG Version: 2.1.1 Build 136)  -->
  <defs>
    <style>
      .st0 {
        fill: url(#Degradado_sin_nombre_182);
      }

      .st1 {
        fill: url(#Degradado_sin_nombre_164);
      }

      .st2 {
        fill: url(#Degradado_sin_nombre_161);
      }

      .st3 {
        fill: url(#Degradado_sin_nombre_162);
      }

      .st4 {
        fill: url(#Degradado_sin_nombre_163);
      }

      .st5 {
        fill: url(#Degradado_sin_nombre_181);
      }

      .st6 {
        fill: url(#Degradado_sin_nombre_301);
      }

      .st7 {
        opacity: .5;
      }

      .st8 {
        fill: #e4e7eb;
      }

      .st9 {
        fill: url(#Degradado_sin_nombre_30);
      }

      .st10 {
        fill: url(#Degradado_sin_nombre_16);
      }

      .st11 {
        fill: url(#Degradado_sin_nombre_18);
      }
    </style>
    <linearGradient id="Degradado_sin_nombre_16" data-name="Degradado sin nombre 16" x1="197.9" y1="-156.9" x2="206" y2="-157" gradientTransform="translate(352 -103.6) rotate(120.8)" gradientUnits="userSpaceOnUse">
      <stop offset="0" stop-color="#575756"/>
      <stop offset=".5" stop-color="#fff"/>
      <stop offset="1" stop-color="#706f6f"/>
    </linearGradient>
    <linearGradient id="Degradado_sin_nombre_18" data-name="Degradado sin nombre 18" x1="82" y1="-129.6" x2="86.9" y2="-131.1" gradientTransform="translate(181.3 17.6) rotate(119.6) scale(1 -1)" gradientUnits="userSpaceOnUse">
      <stop offset="0" stop-color="#575756"/>
      <stop offset=".5" stop-color="#fff"/>
      <stop offset="1" stop-color="#706f6f"/>
    </linearGradient>
    <linearGradient id="Degradado_sin_nombre_161" data-name="Degradado sin nombre 16" x1="192" y1="17.3" x2="197" y2="17.3" gradientTransform="translate(224.6 -53.9) rotate(90)" xlink:href="#Degradado_sin_nombre_16"/>
    <linearGradient id="Degradado_sin_nombre_181" data-name="Degradado sin nombre 18" x1="190.7" y1="-166.5" x2="201.1" y2="-166.8" gradientTransform="translate(73.8 -103.6) rotate(59.2) scale(1 -1)" xlink:href="#Degradado_sin_nombre_18"/>
    <linearGradient id="Degradado_sin_nombre_162" data-name="Degradado sin nombre 16" x1="9.1" y1="85.3" x2="19" y2="85.3" gradientTransform="matrix(1,0,0,1,0,0)" xlink:href="#Degradado_sin_nombre_16"/>
    <linearGradient id="Degradado_sin_nombre_30" data-name="Degradado sin nombre 30" x1="129.1" y1="-84.2" x2="132.8" y2="-89.4" gradientTransform="translate(181.3 17.6) rotate(119.6) scale(1 -1)" gradientUnits="userSpaceOnUse">
      <stop offset="0" stop-color="#575756"/>
      <stop offset=".5" stop-color="#fff"/>
      <stop offset="1" stop-color="#706f6f"/>
    </linearGradient>
    <linearGradient id="Degradado_sin_nombre_182" data-name="Degradado sin nombre 18" x1="214.3" y1="-362.5" x2="219.2" y2="-363.9" gradientTransform="translate(-33.9 17.6) rotate(60.4)" xlink:href="#Degradado_sin_nombre_18"/>
    <linearGradient id="Degradado_sin_nombre_301" data-name="Degradado sin nombre 30" x1="261.3" y1="-317.1" x2="265.1" y2="-322.3" gradientTransform="translate(-33.9 17.6) rotate(60.4)" xlink:href="#Degradado_sin_nombre_30"/>
    <linearGradient id="Degradado_sin_nombre_163" data-name="Degradado sin nombre 16" x1="62.3" y1="17.7" x2="72.2" y2="17.7" gradientTransform="translate(224.6 -53.9) rotate(90)" xlink:href="#Degradado_sin_nombre_16"/>
    <linearGradient id="Degradado_sin_nombre_164" data-name="Degradado sin nombre 16" x1="-376.5" y1="85.3" x2="-366.6" y2="85.3" gradientTransform="translate(28.1) rotate(-180) scale(1 -1)" xlink:href="#Degradado_sin_nombre_16"/>
  </defs>
  <g class="st7">
    <g>
      <g>
        <polygon class="st8" points="46 138.9 35.9 35.9 36.8 35.8 47 138.9 46 138.9"/>
        <polygon class="st8" points="56.4 138.9 46.9 35.9 47.8 35.8 57.3 138.9 56.4 138.9"/>
        <polygon class="st8" points="66.8 138.9 57.9 35.9 58.9 35.8 67.7 138.9 66.8 138.9"/>
        <polygon class="st8" points="77.1 138.9 69 35.9 69.9 35.8 78.1 138.9 77.1 138.9"/>
        <polygon class="st8" points="87.5 138.9 80 35.9 80.9 35.8 88.4 138.9 87.5 138.9"/>
        <polygon class="st8" points="97.8 138.9 91 35.9 91.9 35.8 98.8 138.9 97.8 138.9"/>
        <polygon class="st8" points="108.2 138.9 102 35.9 102.9 35.8 109.1 138.9 108.2 138.9"/>
        <polygon class="st8" points="118.6 138.9 113 35.9 114 35.8 119.5 138.9 118.6 138.9"/>
        <polygon class="st8" points="128.9 138.9 124.1 35.9 125 35.8 129.8 138.9 128.9 138.9"/>
        <polygon class="st8" points="139.3 138.9 135.1 35.9 136 35.8 140.2 138.9 139.3 138.9"/>
        <polygon class="st8" points="149.6 138.9 146.1 35.9 147 35.8 150.6 138.9 149.6 138.9"/>
        <polygon class="st8" points="160 138.9 157.1 35.9 158.1 35.8 160.9 138.9 160 138.9"/>
        <polygon class="st8" points="170.4 138.9 168.1 35.9 169.1 35.8 171.3 138.9 170.4 138.9"/>
        <polygon class="st8" points="180.7 138.9 179.2 35.9 180.1 35.8 181.6 138.9 180.7 138.9"/>
        <polygon class="st8" points="191.1 138.9 190.2 35.9 191.1 35.8 192 138.9 191.1 138.9"/>
        <rect class="st8" x="201.3" y="35.8" width=".9" height="103" transform="translate(-.2 .4) rotate(-.1)"/>
        <polygon class="st8" points="212.7 138.9 211.8 138.9 212.2 35.8 213.2 35.8 212.7 138.9"/>
        <polygon class="st8" points="223.1 138.9 222.1 138.9 223.2 35.8 224.2 35.9 223.1 138.9"/>
        <polygon class="st8" points="233.4 138.9 232.5 138.9 234.3 35.8 235.2 35.9 233.4 138.9"/>
        <polygon class="st8" points="243.8 138.9 242.9 138.9 245.3 35.8 246.2 35.9 243.8 138.9"/>
        <polygon class="st8" points="254.2 138.9 253.2 138.9 256.3 35.8 257.2 35.9 254.2 138.9"/>
        <polygon class="st8" points="264.5 138.9 263.6 138.9 267.3 35.8 268.3 35.9 264.5 138.9"/>
        <polygon class="st8" points="274.9 138.9 273.9 138.9 278.3 35.8 279.3 35.9 274.9 138.9"/>
        <polygon class="st8" points="285.2 138.9 284.3 138.9 289.4 35.8 290.3 35.9 285.2 138.9"/>
        <polygon class="st8" points="295.6 138.9 294.7 138.9 300.4 35.8 301.3 35.9 295.6 138.9"/>
        <polygon class="st8" points="305.9 138.9 305 138.9 311.4 35.8 312.3 35.9 305.9 138.9"/>
        <polygon class="st8" points="316.3 138.9 315.4 138.9 322.4 35.8 323.4 35.9 316.3 138.9"/>
        <polygon class="st8" points="326.7 138.9 325.7 138.9 333.5 35.8 334.4 35.9 326.7 138.9"/>
        <polygon class="st8" points="337 138.9 336.1 138.9 344.5 35.8 345.4 35.9 337 138.9"/>
        <polygon class="st8" points="347.4 138.9 346.5 138.9 355.5 35.8 356.4 35.9 347.4 138.9"/>
        <polygon class="st8" points="357.7 138.9 356.8 138.9 366.5 35.8 367.4 35.9 357.7 138.9"/>
        <polygon class="st8" points="368.1 138.9 367.2 138.9 377.5 35.8 378.5 35.9 368.1 138.9"/>
        <rect class="st8" x="45.2" y="138.5" width="324" height=".8"/>
        <rect class="st8" x="44.3" y="129.1" width="325.8" height=".8"/>
        <rect class="st8" x="43.4" y="119.8" width="327.6" height=".8"/>
        <rect class="st8" x="42.5" y="110.4" width="329.5" height=".8"/>
        <rect class="st8" x="41.6" y="101.1" width="331.3" height=".8"/>
        <rect class="st8" x="40.7" y="91.7" width="333.1" height=".8"/>
        <rect class="st8" x="39.7" y="82.3" width="335" height=".8"/>
        <rect class="st8" x="38.8" y="73" width="336.8" height=".8"/>
        <rect class="st8" x="37.9" y="63.6" width="338.6" height=".8"/>
        <rect class="st8" x="37" y="54.3" width="340.5" height=".8"/>
        <rect class="st8" x="36.1" y="44.9" width="342.3" height=".8"/>
        <rect class="st8" x="35.2" y="35.5" width="344.1" height=".8"/>
      </g>
      <g>
        <polygon class="st8" points="36 36.1 16.3 13.3 17 12.8 36.7 35.6 36 36.1"/>
        <polygon class="st8" points="47 36.1 28.6 13.2 29.3 12.8 47.8 35.6 47 36.1"/>
        <polygon class="st8" points="58 36 40.8 13.2 41.6 12.8 58.8 35.6 58 36"/>
        <polygon class="st8" points="69 36 53.1 13.2 53.9 12.8 69.8 35.7 69 36"/>
        <polygon class="st8" points="80 36 65.4 13.2 66.2 12.9 80.9 35.7 80 36"/>
        <polygon class="st8" points="91 36 77.7 13.2 78.5 12.9 91.9 35.7 91 36"/>
        <polygon class="st8" points="102.1 36 89.9 13.2 90.8 12.9 102.9 35.7 102.1 36"/>
        <polygon class="st8" points="113.1 36 102.2 13.2 103.1 12.9 113.9 35.7 113.1 36"/>
        <polygon class="st8" points="124.1 36 114.5 13.2 115.4 12.9 125 35.7 124.1 36"/>
        <polygon class="st8" points="135.1 36 126.8 13.1 127.7 12.9 136 35.7 135.1 36"/>
        <polygon class="st8" points="146.1 35.9 139.1 13.1 140 12.9 147 35.8 146.1 35.9"/>
        <polygon class="st8" points="157.1 35.9 151.3 13.1 152.2 13 158 35.8 157.1 35.9"/>
        <polygon class="st8" points="168.1 35.9 163.6 13.1 164.5 13 169.1 35.8 168.1 35.9"/>
        <polygon class="st8" points="179.2 35.9 175.9 13.1 176.8 13 180.1 35.8 179.2 35.9"/>
        <polygon class="st8" points="190.2 35.9 188.2 13.1 189.1 13 191.1 35.8 190.2 35.9"/>
        <polygon class="st8" points="201.2 35.9 200.5 13 201.4 13 202.1 35.8 201.2 35.9"/>
        <polygon class="st8" points="213.2 35.9 212.2 35.8 212.7 13 213.7 13 213.2 35.9"/>
        <polygon class="st8" points="224.2 35.9 223.2 35.8 225 13 226 13.1 224.2 35.9"/>
        <polygon class="st8" points="235.2 35.9 234.3 35.8 237.3 13 238.2 13.1 235.2 35.9"/>
        <polygon class="st8" points="246.2 35.9 245.3 35.8 249.6 13 250.5 13.1 246.2 35.9"/>
        <polygon class="st8" points="257.2 35.9 256.3 35.8 261.9 13 262.8 13.1 257.2 35.9"/>
        <polygon class="st8" points="268.2 35.9 267.3 35.8 274.2 12.9 275.1 13.1 268.2 35.9"/>
        <polygon class="st8" points="279.3 36 278.4 35.7 286.5 12.9 287.4 13.1 279.3 36"/>
        <polygon class="st8" points="290.3 36 289.4 35.7 298.8 12.9 299.6 13.2 290.3 36"/>
        <polygon class="st8" points="301.3 36 300.4 35.7 311.1 12.9 311.9 13.2 301.3 36"/>
        <polygon class="st8" points="312.3 36 311.4 35.7 323.3 12.9 324.2 13.2 312.3 36"/>
        <polygon class="st8" points="323.3 36 322.5 35.7 335.6 12.9 336.5 13.2 323.3 36"/>
        <polygon class="st8" points="334.3 36 333.5 35.7 347.9 12.9 348.8 13.2 334.3 36"/>
        <polygon class="st8" points="345.3 36 344.5 35.7 360.2 12.9 361 13.2 345.3 36"/>
        <polygon class="st8" points="356.4 36 355.6 35.6 372.5 12.8 373.3 13.2 356.4 36"/>
        <polygon class="st8" points="367.4 36.1 366.6 35.6 384.8 12.8 385.6 13.2 367.4 36.1"/>
        <polygon class="st8" points="378.4 36.1 377.6 35.6 397.1 12.8 397.9 13.3 378.4 36.1"/>
        <rect class="st8" x="17.6" y="11.4" width="379.3" height=".8"/>
        <rect class="st8" x="19.8" y="14.4" width="374.9" height=".8"/>
        <rect class="st8" x="22" y="17.4" width="370.5" height=".8"/>
        <rect class="st8" x="24.2" y="20.4" width="366.1" height=".8"/>
        <rect class="st8" x="26.4" y="23.5" width="361.7" height=".8"/>
        <rect class="st8" x="28.6" y="26.5" width="357.3" height=".8"/>
        <rect class="st8" x="30.8" y="29.5" width="352.9" height=".8"/>
        <rect class="st8" x="33" y="32.5" width="348.5" height=".8"/>
        <rect class="st8" x="35.2" y="35.5" width="344.1" height=".8"/>
      </g>
      <g>
        <polygon class="st8" points="14.9 158.4 14.4 157.8 46.1 138.8 46.6 139.4 14.9 158.4"/>
        <polygon class="st8" points="15.1 145.3 14.6 144.6 45.2 129.4 45.7 130 15.1 145.3"/>
        <polygon class="st8" points="15.2 132.1 14.8 131.4 44.3 120 44.7 120.7 15.2 132.1"/>
        <polygon class="st8" points="15.3 118.9 15 118.2 43.5 110.6 43.8 111.3 15.3 118.9"/>
        <polygon class="st8" points="15.5 105.8 15.3 105 42.6 101.2 42.8 101.9 15.5 105.8"/>
        <polygon class="st8" points="15.6 92.6 15.6 91.8 41.8 91.8 41.8 92.5 15.6 92.6"/>
        <polygon class="st8" points="40.8 83.1 15.7 79.4 15.8 78.6 41 82.4 40.8 83.1"/>
        <polygon class="st8" points="39.8 73.7 15.8 66.2 16.1 65.4 40.2 73 39.8 73.7"/>
        <polygon class="st8" points="38.8 64.3 15.9 52.9 16.4 52.3 39.3 63.7 38.8 64.3"/>
        <polygon class="st8" points="37.9 54.9 16 39.7 16.6 39.1 38.5 54.3 37.9 54.9"/>
        <polygon class="st8" points="36.9 45.5 16.1 26.5 16.8 26 37.6 45 36.9 45.5"/>
        <polygon class="st8" points="36 36.1 16.3 13.3 17 12.8 36.7 35.6 36 36.1"/>
        <polygon class="st8" points="14.6 159.9 13.7 159.9 15.8 14.4 16.7 14.4 14.6 159.9"/>
        <polygon class="st8" points="18.8 157.3 17.8 157.3 18.3 17.1 19.2 17.1 18.8 157.3"/>
        <polygon class="st8" points="21.9 154.7 20.8 19.8 21.7 19.8 22.9 154.7 21.9 154.7"/>
        <polygon class="st8" points="26 152.2 23.3 22.5 24.3 22.5 27 152.2 26 152.2"/>
        <polygon class="st8" points="30.1 149.6 25.8 25.2 26.8 25.1 31.1 149.6 30.1 149.6"/>
        <polygon class="st8" points="34.3 147.1 28.4 27.8 29.3 27.8 35.2 147 34.3 147.1"/>
        <polygon class="st8" points="38.4 144.5 30.9 30.5 31.8 30.5 39.3 144.5 38.4 144.5"/>
        <polygon class="st8" points="42.5 141.9 33.4 33.2 34.3 33.1 43.4 141.9 42.5 141.9"/>
        <polygon class="st8" points="46.6 139.4 35.9 35.9 36.8 35.8 47.5 139.3 46.6 139.4"/>
      </g>
      <g>
        <polygon class="st8" points="400.7 158.4 369 139.4 369.6 138.8 401.3 157.8 400.7 158.4"/>
        <polygon class="st8" points="400.6 145.3 369.9 130 370.4 129.4 401 144.6 400.6 145.3"/>
        <polygon class="st8" points="400.4 132.1 370.9 120.7 371.3 120 400.8 131.4 400.4 132.1"/>
        <polygon class="st8" points="400.3 118.9 371.9 111.3 372.1 110.6 400.6 118.2 400.3 118.9"/>
        <polygon class="st8" points="400.2 105.8 372.8 101.9 373 101.2 400.3 105 400.2 105.8"/>
        <polygon class="st8" points="400.1 92.6 373.8 92.5 373.8 91.8 400.1 91.8 400.1 92.6"/>
        <polygon class="st8" points="374.8 83.1 374.6 82.4 399.8 78.6 400 79.4 374.8 83.1"/>
        <polygon class="st8" points="375.8 73.7 375.5 73 399.5 65.4 399.9 66.2 375.8 73.7"/>
        <polygon class="st8" points="376.8 64.3 376.3 63.7 399.3 52.3 399.8 52.9 376.8 64.3"/>
        <polygon class="st8" points="377.8 54.9 377.2 54.3 399 39.1 399.6 39.7 377.8 54.9"/>
        <polygon class="st8" points="378.7 45.5 378 45 398.8 26 399.5 26.5 378.7 45.5"/>
        <polygon class="st8" points="379.7 36.1 378.9 35.6 398.6 12.8 399.3 13.3 379.7 36.1"/>
        <polygon class="st8" points="401 159.9 398.9 14.4 399.8 14.4 401.9 159.9 401 159.9"/>
        <polygon class="st8" points="396.9 157.3 396.4 17.1 397.3 17.1 397.8 157.3 396.9 157.3"/>
        <polygon class="st8" points="393.7 154.7 392.8 154.7 393.9 19.8 394.8 19.8 393.7 154.7"/>
        <polygon class="st8" points="389.6 152.2 388.7 152.2 391.4 22.5 392.3 22.5 389.6 152.2"/>
        <polygon class="st8" points="385.5 149.6 384.6 149.6 388.9 25.1 389.8 25.2 385.5 149.6"/>
        <polygon class="st8" points="381.4 147.1 380.4 147 386.3 27.8 387.3 27.8 381.4 147.1"/>
        <polygon class="st8" points="377.3 144.5 376.3 144.5 383.8 30.5 384.8 30.5 377.3 144.5"/>
        <polygon class="st8" points="373.2 141.9 372.2 141.9 381.3 33.1 382.2 33.2 373.2 141.9"/>
        <polygon class="st8" points="369 139.4 368.1 139.3 378.8 35.8 379.7 35.9 369 139.4"/>
      </g>
    </g>
  </g>
  <polygon class="st10" points="395.2 162.3 404.1 154 368.7 138.1 365.1 143.1 395.2 162.3"/>
  <polygon class="st11" points="14.6 18.3 18.7 12.7 38.5 36 33.6 38.1 14.6 18.3"/>
  <polygon class="st2" points="365.1 143.1 368.7 138.1 45.9 138.1 49.4 143.1 365.1 143.1"/>
  <polygon class="st5" points="19.4 162.3 10.5 154 45.9 138.1 49.5 143.1 19.4 162.3"/>
  <polygon class="st3" points="19 18.3 9.1 8.3 9.1 162.3 19 162.3 19 18.3"/>
  <path class="st9" d="M43,140.5c4.7,1.4,7.3-1.5,7.3-1.5l-11.8-102.9-5,2.1s7.6,79.3,9.5,102.4Z"/>
  <polygon class="st0" points="400.7 18.3 396.5 12.7 376.7 36 381.6 38.1 400.7 18.3"/>
  <path class="st6" d="M372.2,140.5c-4.7,1.4-7.3-1.5-7.3-1.5l11.8-102.9,5,2.1s-7.6,79.3-9.5,102.4Z"/>
  <polygon class="st4" points="394.7 18.3 404.8 8.3 9.1 8.3 19 18.3 394.7 18.3"/>
  <polygon class="st1" points="394.7 18.3 404.7 8.3 404.7 162.3 394.7 162.3 394.7 18.3"/>
</svg>
