<?xml version="1.0" encoding="UTF-8"?>
<svg id="Capa_1" xmlns="http://www.w3.org/2000/svg" version="1.1" viewBox="0 0 103.4 100.6">
  <!-- Generator: Adobe Illustrator 30.1.0, SVG Export Plug-In . SVG Version: 2.1.1 Build 136)  -->
  <defs>
    <style>
      .st0 {
        fill: #bebebe;
      }

      .st1 {
        fill: #c44201;
      }

      .st2 {
        fill: #fea980;
      }

      .st3 {
        fill: #fff;
      }

      .st4 {
        fill: #feda24;
      }

      .st5 {
        fill: #fa5402;
      }

      .st6 {
        fill: #fcfcfc;
      }

      .st7 {
        fill: #e7a017;
      }
    </style>
  </defs>
  <g transform="translate(103.4 0) scale(-1 1)">
<g>
    <path d="M68.3,53.2l4.2-4.3,2.3-2.1,19.2-19.2-2.1-2.1-19.2,19.2-4.3-4.3,2.1-2.1,2.2,2.1,4.2-4.3,2.2-2.1-2.1-2.1,2.1-2.2-4.4-4.3-2.1-2.1-2.1,2.1-2.1-2.1-2.1,2.2-4.3,4.2,2.1,2.2-2.1,2.1,6.4,6.4-2.1,2.1-6.4-6.4,2.1-2.2-4.3-4.3,19.2-19.2-2.1-2.1-19.2,19.2-2.1,2.3-4.4,4.1,2.2,2.2-8.5,8.5,15,15,8.5-8.5,2.2,2.1-14.9,14.9,2.1,2.2-21.3,21.3,2.1,2.2-2.1,2.1-2.1-2.1-2.2,2.1-6.4-6.4,8.6-8.6,2.1,2.3-4.2,4.1,2.2,2.2,4.1-4.4,4.4-4.2-4.3-4.3-4.3,4.3-2.1-2.2,12.8-12.8,6.4,6.4,4.3-4.3-2.1-2,4.2-4.4-14.9-14.9-4.4,4.2-2-2.1-4.3,4.3,6.4,6.4,2.1-2.2,6.5,6.5-2.2,2.1-6.4-6.4-12.8,12.8-2.2-2.1,4.3-4.3-4.3-4.3-4.2,4.4-4.4,4.1,2.2,2.2,4.1-4.2,2.3,2.1-8.6,8.6-6.4-6.4,2.1-2.2-2.1-2.1,2.1-2.1,2.2,2.1,21.3-21.3,2.2,2.1,14.9-14.9-2.1-2.2,25.6-25.6,2.2,2.1,2.1-2.1,2.1,2.1-2.1,2.1,2.1,2.2-8.5,8.5,2.1,2.2,2.2-2.1,6.4,6.4-2.1,2.2,2.2,2.1,8.5-8.5,2.2,2.1,2.1-2.1,2.1,2.1-2.1,2.1,2.1,2.2-25.6,25.6-2.2-2.1ZM27.6,63.8l4.3-4.3-4.3-4.3-4.3,4.3,4.3,4.3ZM42.6,78.8l4.3-4.3-4.3-4.3-4.3,4.3,4.3,4.3Z"/>
    <polygon class="st0" points="36 50.9 34.1 53.2 38.3 57.5 40.4 55.3 46.9 61.7 44.7 63.8 49 68.1 51.2 66.1 53.3 68.1 49 72.4 42.6 66 44.8 63.9 38.3 57.4 36.2 59.6 29.7 53.1 34 48.8 36 50.9"/>
    <polygon class="st5" points="21.2 70.2 18.9 68.2 17 66.1 21.2 61.6 25.5 66 21.2 70.2"/>
    <polygon class="st2" points="27.6 63.8 23.3 59.5 27.6 55.3 31.9 59.5 27.6 63.8"/>
    <polygon class="st1" points="18.9 68.2 14.8 72.4 12.6 70.2 17 66.1 18.9 68.2"/>
    <polygon class="st5" points="36.1 85.2 34 83.2 31.9 81 36.2 76.7 40.5 81 36.1 85.2"/>
    <polygon class="st2" points="42.6 78.8 38.3 74.5 42.6 70.3 46.9 74.6 42.6 78.8"/>
    <polygon class="st1" points="36.1 85.2 32 89.6 29.8 87.4 34 83.2 36.1 85.2"/>
    <path class="st1" d="M55.4,36l-2.2,2.3,2.3,2.2,2,2,6.5,6.5,2.2-2.1c.6.6,1.4,1.3,2.2,2l2.1-2.1,2,2.1-4.2,4.3-2.2-2.1-8.5,8.5-15-15,8.5-8.5-2.2-2.2,4.4-4.1,2.1,2-2.1,2.1,2.1,2.1Z"/>
    <polygon class="st6" points="51.2 66.1 49 68.1 44.7 63.8 46.9 61.7 40.4 55.3 38.3 57.5 34.1 53.2 36 50.9 40.5 46.7 55.4 61.7 51.2 66.1"/>
    <path class="st5" d="M57.5,29.6l4.3,4.3-2.1,2.2,6.4,6.4,2.1-2.1,4.3,4.3,2.1,2.1-2.3,2.1-2-2.1-2.1,2.1c-.8-.7-1.6-1.4-2.2-2l-2.1,2.1-6.5-6.6-4.2-4.2,2.2-2.2-2.1-2.1,2.1-2.1-2.1-2,2.1-2.3,2.1,2.1Z"/>
    <rect class="st2" x="69.6" y="34.6" width="27.2" height="3" transform="translate(-1.1 69.4) rotate(-45)"/>
    <rect class="st2" x="52.5" y="17.4" width="27.2" height="3" transform="translate(6 52.3) rotate(-45)"/>
    <polygon class="st7" points="74.6 25.4 70.4 29.6 68.2 27.5 70.4 25.4 72.5 23.2 74.6 25.4"/>
    <polygon class="st7" points="68.2 27.5 66.1 29.6 68.3 31.8 70.4 29.6 72.5 31.8 70.4 33.9 72.5 36.1 74.7 33.9 76.7 36.1 72.6 40.3 70.4 38.2 68.3 40.3 61.8 33.9 64 31.8 61.8 29.6 66.1 25.4 68.2 27.5"/>
    <polygon class="st4" points="70.4 25.4 68.2 27.5 66.1 25.4 68.2 23.2 70.4 25.4"/>
    <polygon class="st4" points="76.7 36.1 74.7 33.9 72.5 36.1 70.4 33.9 72.5 31.8 70.4 29.6 74.6 25.4 78.9 29.6 76.8 31.8 78.9 33.9 76.7 36.1"/>
    <polygon class="st4" points="70.4 29.6 68.3 31.8 66.1 29.6 68.2 27.5 70.4 29.6"/>
    <rect class="st3" x="53.8" y="36.7" width="3.1" height="3.1" transform="translate(43.2 -28) rotate(45)"/>
  </g>
  <rect class="st2" x="63.8" y="29.4" width="8.9" height="8.9" transform="translate(-4 58.2) rotate(-45)"/>
  <rect x="68" y="28.1" width="9.1" height="3" transform="translate(42.2 -42.6) rotate(45)"/>
  <rect x="59.4" y="28.1" width="9.1" height="3" transform="translate(130.2 5.3) rotate(135)"/>
  <rect x="68" y="36.7" width="9.1" height="3" transform="translate(150.8 13.9) rotate(135)"/>
  </g>
</svg>