<?xml version="1.0" encoding="UTF-8"?>
<svg id="Capa_1" xmlns="http://www.w3.org/2000/svg" version="1.1" viewBox="0 0 83.1 108.5">
  <defs>
    <style>
      .st0 {
        fill: #bebebe;
      }

      .st1 {
        fill: #c44201;
      }

      .st2 {
        fill: #fea980;
      }

      .st3 {
        fill: #feda24;
      }

      .st4 {
        fill: #fa5402;
      }

      .st5 {
        fill: #fcfcfc;
      }

      .st6 {
        fill: #e7a017;
      }
    </style>
  </defs>
  <path d="M54.3,85.8h3.3s0,6.6,0,6.6h3.3s0-13.1,0-13.1h-3.3s0-3.5,0-3.5h-6.6s0,3.3,0,3.3h3.3s0,.2,0,.2v6.6h-3.3s0-6.7,0-6.7h-3.3s0-6.6,0-6.6h9.9s0-3.3,0-3.3h3.3s0-3.3,0-3.3h-3.3c0-.1-.1-3.3-.1-3.3,0-.9.1-2.1.2-3.2h-3.3s0-13,0-13l3.3-.2v-3.2s3.3,0,3.3,0v-3.3s3.3,0,3.3,0v-3.3s0-6.6,0-6.6h3.3s0-9.8,0-9.8h-3.3s0,9.8,0,9.8h-3.3s0,6.6,0,6.6h-9.9s0,3.3,0,3.3h-3.3v-9.8h3.3s0-3.3,0-3.3h-3.3s0-3.3,0-3.3h-6.6c0,0-3.2,0-3.2,0v3.3s3.3,0,3.3,0h6.6s0,3.3,0,3.3h-9.9v-3.3s-3.3,0-3.3,0v3.3s3.3,0,3.3,0v9.8s9.9,0,9.9,0v3.3s-9.9,0-9.9,0v-3.3s-3.3,0-3.3,0v-3.3s-6.6,0-6.6,0v-3.3s-3.3,0-3.3,0v-3.3s-3.3,0-3.3,0v-9.8s-3.3,0-3.3,0v9.8s3.3,0,3.3,0v6.6s0,3.3,0,3.3h3.3s0,3.3,0,3.3h3.3s0,3.3,0,3.3h3.3c0,1.2.2,2.4.2,3.3l-.2,6.5h3.3s0,3.3,0,3.3h19.7s0,3.1,0,3.1l-19.8.2v-3.3s-3.3,0-3.3,0v6.5s-3.3.1-3.3.1v3.3s3.3,0,3.3,0v3.3s9.9,0,9.9,0v-3.1c2.2-.1,4.4-.1,6.6,0v3.1s-6.6,0-6.6,0v6.6s-3.3,0-3.3,0v6.7s-3.3,0-3.3,0v-6.7s3.3,0,3.3,0v-3.3s-6.6,0-6.6,0v3.5s-3.3,0-3.3,0v13.1s3.3,0,3.3,0v-6.6s3.3,0,3.3,0v9.8s-3.3,0-3.3,0v3.3s-9.9,0-9.9,0v-3.3s3.3,0,3.3,0v-16.4s3.3,0,3.3,0v-10s-3.3,0-3.3,0v-3.3s3.3,0,3.3,0v-6.6s3.3,0,3.3,0v-3.3s-3.3,0-3.3,0v-9.8s-3.3,0-3.3,0v-3.3s-3.3,0-3.3,0v-3.3s-3.3,0-3.3,0v-9.8s-3.3,0-3.3,0v-9.8s3.3,0,3.3,0v-3.3s3.3,0,3.3,0v3.3s3.3,0,3.3,0v9.8s3.3,0,3.3,0v3.3s3.3,0,3.3,0v-6.6s3.3,0,3.3,0v-3.3s3.3,0,3.3,0v-3.3s9.9,0,9.9,0v3.3s3.3,0,3.3,0v3.3s3.3,0,3.3,0v6.6s3.3,0,3.3,0v-3.3s3.3,0,3.3,0v-9.8s3.3,0,3.3,0v-3.3s3.3,0,3.3,0v3.3s3.3,0,3.3,0v9.8s-3.3,0-3.3,0v9.8s-3.3,0-3.3,0v3.3s-3.3,0-3.3,0v3.3s-3.3,0-3.3,0v13.1s3.3,0,3.3,0v6.5s3.3,0,3.3,0v3.3s-3.3,0-3.3,0v10s3.3,0,3.3,0v16.4s3.3,0,3.3,0v3.3s-9.9,0-9.9,0v-3.3s-3.3,0-3.3,0v-9.8Z"/>
  <polygon class="st4" points="31.3 79.2 34.5 79.2 34.5 85.8 31.3 85.8 31.3 92.4 28 92.3 28 79.2 31.3 79.2"/>
  <polygon class="st4" points="57.6 79.2 60.9 79.2 60.9 92.3 57.6 92.4 57.6 85.8 54.3 85.8 54.3 79.2 57.6 79.2"/>
  <path class="st4" d="M47.7,39.7h3.3s0-3.3,0-3.3h9.9s3.3,0,3.3,0v3.3s-3.3,0-3.3,0v3.3s-3.3,0-3.3,0v3.2s-3.3.2-3.3.2l-3.2-.2v6.6s-9.9,0-9.9,0v-3.3s-3.3,0-3.3,0v-3.3s-3.3,0-3.3,0v3.3s-3.2,0-3.2,0c0-.9-.1-2.1-.2-3.3h-3.3s0-3.3,0-3.3h-3.3s0-3.3,0-3.3h-3.3s0-3.3,0-3.3h3.3s0-3.3,0-3.3h3.3s0,3.3,0,3.3h6.6s0,3.3,0,3.3h3.3s0,3.3,0,3.3h9.9s0-3.3,0-3.3Z"/>
  <rect class="st2" x="37.8" y="29.8" width="9.9" height="9.8"/>
  <polygon class="st2" points="64.2 29.8 64.2 36.4 60.9 36.4 60.9 29.8 64.2 29.8"/>
  <polygon class="st2" points="64.2 29.8 64.2 20 67.5 20 67.5 29.8 64.2 29.8"/>
  <polygon class="st3" points="47.7 29.8 47.7 26.5 41.1 26.5 41.1 23.3 47.7 23.2 47.7 26.5 51 26.5 51 29.8 47.7 29.8"/>
  <path class="st0" d="M57.6,65.8h3.3c0,.1,0,3.4,0,3.4h-3.3s0,3.3,0,3.3h-9.9s0-3.1,0-3.1l6.5-.2v-3.2c1.2,0,2.4-.2,3.3-.1Z"/>
  <polygon class="st2" points="57.6 79.2 54.3 79.2 54.3 79.1 51 79.1 51 75.8 57.6 75.8 57.6 79.2"/>
  <path class="st0" d="M31.3,65.8c.9,0,2.1,0,3.3.1v3.2s6.5.2,6.5.2v3.1c0,0-9.8,0-9.8,0v-3.3s-3.3,0-3.3,0v-3.3s3.3-.1,3.3-.1Z"/>
  <polygon class="st2" points="34.5 79.2 31.3 79.2 31.3 75.8 37.8 75.8 37.8 79.1 34.5 79.1 34.5 79.2"/>
  <rect class="st3" x="34.5" y="26.5" width="3.3" height="3.3"/>
  <polygon class="st1" points="37.8 49.5 37.8 52.8 41.1 52.8 51 52.8 51 46.2 54.2 46.4 54.3 59.4 34.6 59.4 34.5 56.1 31.2 56.1 31.4 49.6 34.5 49.5 34.5 46.2 37.8 46.2 37.8 49.5"/>
  <path class="st0" d="M57.4,62.6h-3.1c0,0,0-3.2,0-3.2h3.3c0,1.2-.2,2.3-.2,3.2Z"/>
  <polygon class="st2" points="24.7 33.1 24.7 36.4 21.4 36.4 21.4 29.8 18.1 29.8 18.1 20 21.4 20 21.4 29.8 24.7 29.8 24.7 33.1"/>
  <polygon class="st6" points="41.1 23.3 41.1 26.5 37.8 26.5 37.8 23.3 41.1 23.3"/>
  <path class="st5" d="M54.3,62.5h3.1c0,0,.1,3.3.1,3.3-.9,0-2.1,0-3.3.1v3.2s-6.5.2-6.5.2c-2.2-.1-4.5-.1-6.7,0l-6.5-.2v-3.2c-1.2,0-2.3-.1-3.3-.1v-6.5s3.3,0,3.3,0v3.3s19.8-.2,19.8-.2Z"/>
  <rect class="st5" x="37.8" y="49.5" width="3.3" height="3.3"/>
</svg>
