<?xml version="1.0" encoding="UTF-8"?>
<svg id="Capa_1" xmlns="http://www.w3.org/2000/svg" version="1.1" viewBox="0 0 434.6 81.5">
  <defs>
    <style>
      .st3 {
        fill: #fff;
      }

      .st4 {
        fill: #282828;
      }

      .st5 {
        fill: #353535;
      }
    </style>
  </defs>
  <g>
    <path class="st3" d="M207,18.5v39.4H38.6c-10.9,0-19.7-8.8-19.7-19.7s8.8-19.7,19.7-19.7h168.4M207,15.5H38.6c-12.5,0-22.7,10.2-22.7,22.7s10.2,22.7,22.7,22.7h168.4c1.7,0,3-1.3,3-3V18.5c0-1.7-1.3-3-3-3h0Z"/>
    <path class="st3" d="M213.4,9.6v57.3h-57.3V9.6h57.3M213.4,6.6h-57.3c-1.7,0-3,1.3-3,3v57.3c0,1.7,1.3,3,3,3h57.3c1.7,0,3-1.3,3-3V9.6c0-1.7-1.3-3-3-3h0Z"/>
    <path class="st4" d="M207,57.9H38.6c-10.9,0-19.7-8.8-19.7-19.7h0c0-10.9,8.8-19.7,19.7-19.7h168.4v39.4Z"/>
    <path class="st5" d="M152.9,22.7H39.2c-8.5,0-15.4,6.8-15.5,15.2h129.2v-15.2Z"/>
    <rect class="st4" x="156.1" y="9.6" width="57.3" height="57.3"/>
    <rect class="st5" x="162.1" y="13.8" width="45.4" height="22.7"/>
  </g>
  <g>
    <path class="st3" d="M400.3,18.5c10.9,0,19.7,8.8,19.7,19.7s-8.8,19.7-19.7,19.7h-168.4V18.5h168.4M400.3,15.5h-168.4c-1.7,0-3,1.3-3,3v39.4c0,1.7,1.3,3,3,3h168.4c12.5,0,22.7-10.2,22.7-22.7s-10.2-22.7-22.7-22.7h0Z"/>
    <path class="st3" d="M282.8,9.6v57.3h-57.3V9.6h57.3M282.8,6.6h-57.3c-1.7,0-3,1.3-3,3v57.3c0,1.7,1.3,3,3,3h57.3c1.7,0,3-1.3,3-3V9.6c0-1.7-1.3-3-3-3h0Z"/>
    <path class="st4" d="M231.9,57.9h168.4c10.9,0,19.7-8.8,19.7-19.7h0c0-10.9-8.8-19.7-19.7-19.7h-168.4v39.4Z"/>
    <path class="st5" d="M286,22.7h113.7c8.5,0,15.4,6.8,15.5,15.2h-129.2v-15.2Z"/>
    <rect class="st4" x="225.5" y="9.6" width="57.3" height="57.3" transform="translate(508.3 76.4) rotate(180)"/>
    <rect class="st5" x="231.5" y="13.8" width="45.4" height="22.7" transform="translate(508.3 50.3) rotate(180)"/>
  </g>
</svg>
